<svg id="cclogo" data-name="cclogo" xmlns="http://www.w3.org/2000/svg" xmlns:xlink="http://www.w3.org/1999/xlink" viewBox="0 0 1280 972.23"><defs><style>.cls-1{fill:none;}.cls-2{clip-path:url(#clip-path);}.cls-3{fill:#e5007e;}</style><clipPath id="clip-path"><rect class="cls-1" x="9.97" y="10.34" width="1260.06" height="953.79"/></clipPath></defs><g class="cls-2"><path class="cls-3" d="M507,201.17c-.49-1.5-1-2-2.49-2h-1c-1.49,0-2,.5-2.5,2L477,321c-1,4,1,5.49,4,5.49H527c3,0,5-1.5,4-5.49Z"/><path class="cls-3" d="M769.08,641.61l-11.19,78.3h23Zm-97.23-18.12a43.29,43.29,0,0,0-11.56-1.3H651v59.75h9.25a43.25,43.25,0,0,0,11.56-1.31,13.49,13.49,0,0,0,7.23-4.66,20.59,20.59,0,0,0,3.62-9.18,90.26,90.26,0,0,0,1-14.87,87.83,87.83,0,0,0-1-14.57,20.54,20.54,0,0,0-3.62-9.19,13.51,13.51,0,0,0-7.23-4.67m-308.11,19.3q-.28,7.66-.29,18.84v62.11q0,14.73.44,21.78a39.73,39.73,0,0,0,1.62,10.31q4,10.59,14.43,10.59,11.83,0,15-13.54,1.17-5,1.17-29.14V661.63q0-15-.44-21.93a39.64,39.64,0,0,0-1.62-10.16Q390,619,379.92,619q-12.12,0-15.29,13.54a69.22,69.22,0,0,0-.89,10.3m806.39-96.92H100.93v-19.5h1069.2Zm-.6-93a10,10,0,0,1-10,10h-48.94a10,10,0,0,1-10-10V255.09c0-2.49-3-3-4-.49l-23.48,74.89c-2,6-5,8.5-10.48,8.5h-29.45c-5.51,0-8.5-2.51-10.51-8.5l-24-74.89c-1-2.51-4-2-4,.49V452.83a10,10,0,0,1-10,10H935.84a10,10,0,0,1-10-10V123.27a10,10,0,0,1,10-10h68.9c5.5,0,9,2.51,10.49,8.5l28,97.37c1.5,5,7.49,5,9,0l28-97.37c1.5-6,5-8.5,10.48-8.5h68.92a10,10,0,0,1,10,10Zm-282.71,0a10,10,0,0,1-10,10H687.1a10,10,0,0,1-10-10V123.27a10,10,0,0,1,10-10H737a10,10,0,0,1,10,10V387.92a4.72,4.72,0,0,0,5,5H876.84a10,10,0,0,1,10,10Zm-250.49,0c1,4.49-2,10-10,10H573.91c-4.49,0-8-3-9.48-7.49L549,403.89c-1-4-3-7.49-7.49-7.49H465.57c-4.5,0-6.5,3-7.49,7.49l-14,51.44a9.63,9.63,0,0,1-9.49,7.49H382.16c-8,0-11-5.5-10-10l89.38-332a9.64,9.64,0,0,1,9.49-7.51H538a9.63,9.63,0,0,1,9.49,7.51ZM185.46,358c2.49,22,18,39.94,48.43,39.94,28.45,0,46.93-18,48.94-43.94.5-5.49,4.49-10,10-10h49.94a10,10,0,0,1,10,10c0,66.91-49.93,114.35-118.84,114.35S122,417.87,115,358c-5-41.95-5-97.88,0-139.81,7-59.93,49.93-110.37,118.85-110.37s118.84,47.45,118.84,114.36a10,10,0,0,1-10,10H292.81c-5.49,0-9.48-4.5-10-10-2-26-20.49-43.94-48.94-43.94-30.46,0-45.94,18-48.43,40-5,41.93-5,97.86,0,139.81m27,301.61q0-11.48.45-19.57a82.45,82.45,0,0,1,1.76-13.84A41.56,41.56,0,0,1,218.33,616a58.44,58.44,0,0,1,5.89-8.83,37.59,37.59,0,0,1,14.86-11.62,50.43,50.43,0,0,1,42.83,1.67,39.08,39.08,0,0,1,15.9,16.07,51.5,51.5,0,0,1,3.38,7,40.33,40.33,0,0,1,2.07,7.52,81.9,81.9,0,0,1,1,9.27q.29,5.15.29,12.22v10.59H274.85q0-8.54-.15-15t-.44-10a18.88,18.88,0,0,0-5.1-11.33,14.39,14.39,0,0,0-10.64-4.27q-12,0-15.17,13.52-1.17,5-1.17,29.09v62.3q0,14.7.44,21.6a38.86,38.86,0,0,0,1.62,10.14q4.08,10.59,14.28,10.58a14.13,14.13,0,0,0,10.64-4.41q4.21-4.41,4.81-12a116,116,0,0,0,.73-12.93q.15-8.8.15-15.57h29.73v11.16q0,7.65-.29,13.08a87.42,87.42,0,0,1-1,9.7,46.86,46.86,0,0,1-2.07,7.93,55,55,0,0,1-3.38,7.49,41,41,0,0,1-15.75,16.9,45,45,0,0,1-23.4,6,48.11,48.11,0,0,1-19.43-4,37.46,37.46,0,0,1-15-11.62,58.44,58.44,0,0,1-5.89-8.83,41.56,41.56,0,0,1-3.68-10.16,81.88,81.88,0,0,1-1.76-13.69q-.45-7.95-.45-19.42Zm121.28-1.18q0-10.89.44-18.54a83,83,0,0,1,1.77-13.54A40.88,40.88,0,0,1,339.6,616a58.44,58.44,0,0,1,5.89-8.83,40,40,0,0,1,15-11.48,46.76,46.76,0,0,1,19.43-4.12,45.78,45.78,0,0,1,19.28,4.12,40.28,40.28,0,0,1,14.87,11.48,50.56,50.56,0,0,1,5.74,8.83,45.64,45.64,0,0,1,3.53,10.16,91.79,91.79,0,0,1,1.91,13.54q.6,7.8.59,18.69V727q0,10.89-.59,18.69a91.79,91.79,0,0,1-1.91,13.54,45.64,45.64,0,0,1-3.53,10.16,50.56,50.56,0,0,1-5.74,8.83,40.28,40.28,0,0,1-14.87,11.48,45.78,45.78,0,0,1-19.28,4.12,46.76,46.76,0,0,1-19.43-4.12,40,40,0,0,1-15-11.48,58.44,58.44,0,0,1-5.89-8.83,41,41,0,0,1-3.67-10.3,83.08,83.08,0,0,1-1.77-13.55q-.45-7.65-.44-18.54Zm123.63-63.88h39.44L521.22,714,543.6,594.51h39.73V790.86H555.66V655.15l-28,135.71H514.5L485,655.15V790.86H457.35Zm164,0h41.21q14.13,0,23.84,3a33.1,33.1,0,0,1,15.75,9.86q6,6.91,8.68,17.81t2.65,26.79q0,15.89-2.64,26.93t-8.64,18a32.9,32.9,0,0,1-15.67,9.86q-9.68,2.94-23.73,2.94H651v81.25H621.31Zm96.55,196.35,32.08-196.35h38.27l34.14,196.35H792l-6.78-43.28H753.77L747,790.86Zm130.4-196.35h29.6L918,711.08V594.51h27.67V790.86H918L875.93,669.58V790.86H848.26Zm126,0h30.62l21.05,77.13,20.45-77.13h29.73l-35.32,116.87v79.48H1011V711.38ZM1270,861V10.34H10V861.41H565.2l73.45,102.72,71.12-102.72Z"/></g></svg>