<svg xmlns="http://www.w3.org/2000/svg" viewBox="0 0 288 396"><defs><style>.cls-1{fill:#06344c;}.cls-2{fill:#fff;}.file-cls-3{fill:#ecf7fd;}</style></defs><title>Asset 3</title><g id="Layer_2" data-name="Layer 2"><g id="Layer_1-2" data-name="Layer 1"><polygon class="cls-1" points="288 396 0 396 0 0 216 0 288 72 288 396"/><path class="cls-2" d="M39.26,226.39V214.15a2,2,0,0,1,2-2H53.54a2,2,0,0,1,2,2v12.24a2,2,0,0,1-2,2H41.3A2,2,0,0,1,39.26,226.39Z"/><path class="cls-2" d="M67.82,226.39V159.06a2,2,0,0,1,2-2h20c11,0,18.57,5.61,22.14,13.57,2.65,5.91,2.86,12.95,2.86,22.13S114.65,209,112,214.86c-3.57,8-11.12,13.57-22.14,13.57h-20A2,2,0,0,1,67.82,226.39Zm22-12.34c4.59,0,7.55-1.74,9-4.9,1.33-3,1.43-10.3,1.43-16.43s-.1-13.46-1.43-16.42c-1.43-3.16-4.39-4.9-9-4.9H83.13a1,1,0,0,0-1,1V213a1,1,0,0,0,1,1Z"/><path class="cls-2" d="M126.89,216c-2.65-5.92-2.86-13.57-2.86-23.27s.21-17.34,2.86-23.26c3.57-8,11.12-13.56,22.14-13.56s18.57,5.61,22.14,13.56c2.65,5.92,2.85,13.57,2.85,23.26s-.2,17.35-2.85,23.27c-3.57,7.95-11.12,13.56-22.14,13.56S130.46,223.94,126.89,216ZM158,210.27c1.32-3,1.43-11,1.43-17.55s-.11-14.58-1.43-17.54c-1.43-3.17-4.39-4.9-9-4.9s-7.55,1.73-9,4.9c-1.33,3-1.43,11-1.43,17.54s.1,14.59,1.43,17.55c1.43,3.16,4.39,4.9,9,4.9S156.58,213.43,158,210.27Z"/><path class="cls-2" d="M186.06,216c-2.65-5.92-2.86-13.57-2.86-23.27s.21-17.34,2.86-23.26c3.57-8,11.12-13.56,22.14-13.56,13.57,0,24.28,8.77,24.28,23.36a2,2,0,0,1-2,2H220a2.23,2.23,0,0,1-2.24-2c0-5.31-3.78-9-9.59-9-4.59,0-7.55,1.73-9,4.9-1.33,3-1.43,11-1.43,17.54s.1,14.59,1.43,17.55c1.43,3.16,4.39,4.9,9,4.9,5.81,0,9.59-3.67,9.59-9a2.23,2.23,0,0,1,2.24-2h10.41a2,2,0,0,1,2,2c0,14.39-10.51,23.36-24.28,23.36C197.18,229.55,189.63,223.94,186.06,216Z"/><polygon class="file-cls-3" points="216 0 216 72 288 72 216 0"/></g></g></svg>