<svg id="Layer_1" data-name="Layer 1" xmlns="http://www.w3.org/2000/svg" viewBox="0 0 263.5 341.33"><path class="svg1" d="M97.94,338.05a79.24,79.24,0,0,1-41-11.54c-32.27-19.45-43.76-57.17-43.76-86H26.85c0,31.55,14.59,60.75,37.18,74.36,29.16,17.59,65.77,10.26,87.05-17.38,8.45-11,12-23.76,15.74-37.26,3.14-11.3,6.37-23,12.7-34,2.7-4.76,5.64-9.42,8.48-13.91,6.08-9.64,11.83-18.74,15.61-28.85a133.42,133.42,0,0,0,8.34-47c0-64-43.84-116.1-97.73-116.1S16.49,72.48,16.49,136.49H2.83C2.83,65,52.81,6.8,114.22,6.8S225.61,65,225.61,136.49a147.11,147.11,0,0,1-9.2,51.7c-4.28,11.43-10.67,21.55-16.85,31.34-2.76,4.38-5.61,8.89-8.18,13.39-5.47,9.59-8.35,20-11.4,30.93-3.93,14.18-8,28.84-18.06,41.91-16.21,21.07-39.87,32.29-64,32.29"/><path class="svg1" d="M93.27,267.89c-21.11,0-42.42-11.95-42.42-38.64,0-13,9-20.3,16.25-26.15C76.32,195.66,81,191.91,74,179.47c-32.5-57.95-17.52-88-5.7-100.76,17-18.33,48-23.14,73.69-11.44,27.28,12.41,42.47,47.23,32.48,74.52l-12.83-4.65c7.54-20.63-4.52-48-25.33-57.51-20.16-9.18-45.09-5.6-58,8.3C69,98,57.59,122.37,85.89,172.85c12.57,22.42-1.12,33.48-10.18,40.81C68.76,219.27,64.5,223,64.5,229.25c0,4.17,1.39,25,28.77,25,16.58,0,30.35-8.66,36.82-23.17C146.65,194,121.31,138.9,88.2,112.76l8.49-10.65c37.79,29.86,65.25,91,45.87,134.52-8.71,19.57-27.14,31.26-49.29,31.26"/></svg>