<svg id="Layer_1" data-name="Layer 1" xmlns="http://www.w3.org/2000/svg" viewBox="0 0 170 252" width="169.17" 
    height="251.55">

	<path id="shape-icon-webchat" class="cls-1" d="M162.6,427.39a79.21,79.21,0,0,1-41-11.54c-32.27-19.45-43.76-57.18-43.76-86H91.51c0,31.56,14.6,60.75,37.19,74.37,29.16,17.58,65.77,10.26,87-17.39,8.46-11,12-23.75,15.75-37.26,3.14-11.29,6.37-23,12.69-34,2.71-4.76,5.65-9.41,8.49-13.91,6.08-9.63,11.82-18.73,15.61-28.85a133.63,133.63,0,0,0,8.34-46.95c0-64-43.84-116.1-97.73-116.1s-97.74,52.08-97.74,116.1H67.5c0-71.52,50-129.7,111.39-129.7s111.39,58.18,111.39,129.7a147.19,147.19,0,0,1-9.2,51.7c-4.28,11.42-10.67,21.54-16.85,31.33-2.76,4.38-5.61,8.9-8.18,13.39-5.48,9.6-8.36,20-11.4,30.93-3.93,14.18-8,28.84-18.06,41.92-16.22,21.06-39.87,32.29-64,32.29"/>
	<path class="cls-1" d="M157.94,357.22c-21.12,0-42.42-12-42.42-38.64,0-13,9-20.29,16.25-26.15,9.22-7.44,13.84-11.18,6.87-23.63-32.5-58-17.53-88-5.71-100.76,17-18.32,48-23.14,73.69-11.44,27.29,12.42,42.47,47.24,32.49,74.53l-12.83-4.66c7.54-20.63-4.53-48-25.33-57.5-20.17-9.18-45.1-5.61-58,8.29-9.3,10.05-20.7,34.45,7.6,84.93,12.57,22.41-1.13,33.48-10.19,40.8-6.94,5.62-11.2,9.37-11.2,15.59,0,4.18,1.39,25,28.77,25,16.58,0,30.34-8.66,36.81-23.17,16.57-37.17-8.78-92.21-41.88-118.36l8.48-10.65c37.8,29.86,65.26,91,45.88,134.52-8.72,19.57-27.14,31.26-49.29,31.26"/>
</svg>