<svg xmlns="http://www.w3.org/2000/svg" viewBox="0 0 288 396"><defs><style>.cls-1{fill:#06344c;}.cls-2{fill:#fff;}.file-cls-3{fill:#ecf7fd;}</style></defs><title>Asset 2</title><g id="Layer_2" data-name="Layer 2"><g id="Layer_1-2" data-name="Layer 1"><polygon class="cls-1" points="288 396 0 396 0 0 216 0 288 72 288 396"/><path class="cls-2" d="M49.76,226.39V214.15a2,2,0,0,1,2-2H64.05a2,2,0,0,1,2,2v12.24a2,2,0,0,1-2,2H51.8A2,2,0,0,1,49.76,226.39Z"/><path class="cls-2" d="M78.33,226.39V159.06a2,2,0,0,1,2-2h22.44c12.75,0,21.43,8.67,21.43,21.42s-8.57,21.43-21.43,21.43H93.63a1,1,0,0,0-1,1v25.5a2,2,0,0,1-2,2H80.37A2,2,0,0,1,78.33,226.39Zm24-40.81a7.14,7.14,0,1,0,0-14.28H93.63a1,1,0,0,0-1,1v12.24a1,1,0,0,0,1,1Z"/><path class="cls-2" d="M133.41,226.39V159.06a2.05,2.05,0,0,1,2.05-2h20c11,0,18.57,5.61,22.14,13.57,2.65,5.91,2.86,12.95,2.86,22.13s-.21,16.23-2.86,22.14c-3.57,8-11.12,13.57-22.14,13.57h-20A2.05,2.05,0,0,1,133.41,226.39Zm22-12.34c4.59,0,7.55-1.74,9-4.9,1.33-3,1.43-10.3,1.43-16.43s-.1-13.46-1.43-16.42c-1.43-3.16-4.39-4.9-9-4.9h-6.73a1,1,0,0,0-1,1V213a1,1,0,0,0,1,1Z"/><path class="cls-2" d="M192.17,226.39V159.06a2.05,2.05,0,0,1,2.05-2h35.7a2,2,0,0,1,2,2v10.2a2,2,0,0,1-2,2H207.48a1,1,0,0,0-1,1v12.24a1,1,0,0,0,1,1H228.9a2,2,0,0,1,2,2v10.21a2,2,0,0,1-2,2H207.48a1,1,0,0,0-1,1v25.5a2,2,0,0,1-2,2h-10.2A2.05,2.05,0,0,1,192.17,226.39Z"/><polygon class="file-cls-3" points="216 0 216 72 288 72 216 0"/></g></g></svg>