<svg id="Layer_1" data-name="Layer 1" xmlns="http://www.w3.org/2000/svg" viewBox="0 0 263.5 341.33"><defs></defs><path class="svg1" d="M213.47,246.87a18.1,18.1,0,1,1,18.09-18.09,18.1,18.1,0,0,1-18.09,18.09m-53.85,0a18.1,18.1,0,1,1,18.1-18.09,18.1,18.1,0,0,1-18.1,18.09m-53.84,0a18.1,18.1,0,1,1,18.09-18.09,18.1,18.1,0,0,1-18.09,18.09m124.65-86.76H88.82A30.9,30.9,0,0,0,57.92,191v75.53a30.89,30.89,0,0,0,30.9,30.9h95.69l56.41,40.62-15.18-40.62h4.69a30.89,30.89,0,0,0,30.9-30.9V191a30.9,30.9,0,0,0-30.9-30.9"/><path class="svg1" d="M157.8,90.32a18.1,18.1,0,1,1,18.09-18.09A18.1,18.1,0,0,1,157.8,90.32m-53.85,0a18.1,18.1,0,1,1,18.1-18.09A18.1,18.1,0,0,1,104,90.32m-53.84,0A18.1,18.1,0,1,1,68.2,72.23,18.1,18.1,0,0,1,50.11,90.32M174.76,3.56H33.15a30.9,30.9,0,0,0-30.9,30.9V110a30.89,30.89,0,0,0,30.9,30.9h4.69L22.66,181.5l56.4-40.61h95.7a30.89,30.89,0,0,0,30.9-30.9V34.46a30.9,30.9,0,0,0-30.9-30.9"/></svg>